<?xml version="1.0" encoding="utf-8"?>
<?xml-stylesheet type="text/xsl" href="rss1.xsl"?>
<rss version="2.0" xmlns:atom="http://www.w3.org/2005/Atom" xmlns:content="http://purl.org/rss/1.0/modules/content/" xmlns:dc="http://purl.org/dc/elements/1.1/" xmlns:media="http://search.yahoo.com/mrss/">
<channel>
 <title>Getty</title>
 <link>http://www.gettyimg.com/</link>
 <atom:link href="http://www.gettyimg.com/" rel="self" type="application/rss+xml" />

 
                <item>
                <title><![CDATA[【Albums (lossless)】PACK - Vierra The Discography Album ALAC ITUNES]]></title>
                <link><![CDATA[https://sharemania.us/threads/vierra-the-discography-album-alac-itunes.245323/]]></link>
                <description><![CDATA[<article>
<blockquote class="messageText SelectQuoteContainer ugc baseHtml">
Dan anda dapat mendownloadnya secara gratis disini, selanjutnya saya akan segera menerima permintaan izin akses anda. ♥️<br>
<br>
Dengan Ukuran 520 Mb<br>
<br>
#Vierra #TheDiscographyAlbum<br>
<br>
Source Apple Music<br>
<br>
<div class="bbCodeBlock bbCodeVfcHH HiddenContent">
<div class="attribution type">Hidden Content:</div>
<blockquote>You must either reply or click 'Like' to see the hidden information contained here.</blockquote>
</div>
<div class="messageTextEndMarker">&nbsp;</div>
</blockquote>
</article>]]></description>
                <author><![CDATA[Radif Suherman]]></author>
                </item>

                
                <item>
                <title><![CDATA[【Live Audios (lossy)】MP3 - Ben Platt — Live from Radio City Music Hall (Live) [MP3 320KBPS/44.1kHz]]]></title>
                <link><![CDATA[https://sharemania.us/threads/ben-platt-%E2%80%94-live-from-radio-city-music-hall-live-mp3-320kbps-44-1khz.245322/]]></link>
                <description><![CDATA[<article>
<blockquote class="messageText SelectQuoteContainer ugc baseHtml">
<div style="text-align: center"><img src="https://i1.sndcdn.com/artworks-JT19EAkZlgOrbDwa-IYhQsg-t500x500.jpg" class="bbCodeImage LbImage" alt="[​IMG]" data-url="https://i1.sndcdn.com/artworks-JT19EAkZlgOrbDwa-IYhQsg-t500x500.jpg" style=""> <br>
℗ 2020 The iBruno's Mind Productions.<br>
<br>
<b>Artist: </b>Ben Platt<br>
<b>Album: </b>Live from Radio City Music Hall<br>
<b>Year: </b>May 26, 2020<br>
<b>Genre: </b>Live<br>
<b>Quality: </b>iTunes Rip MP3 320KBPS/44.1kHz<br>
<b>Label: </b>Made by The BMind Inc.<br>
<b>Source: </b>From Netflix File "<a href="https://soundcloud.com/imusicworld/sets/ben-platt-live-from-radio-city-music-hall-concert" target="_blank" class="externalLink" rel="nofollow">Ben Platt Live from Radio City Music Hall</a>"<br>
<b>Size: </b>136 MB<br>
<br>
<b>ALBUM TRACKLIST;</b><br>
01 Bad Habit (Live)<br>
02 Temporary Love (Live)<br>
03 Honest Man (Live)<br>
04 Hurt Me Once (Live)<br>
05 New (Live)<br>
06 Better (Live)<br>
07 Share Your Address (Live)<br>
08 Ease My Mind (Live)<br>
09 Rain (Live)<br>
10 In Case You Don’t Live Forever (Live)<br>
11 Grow As We Go (Live)<br>
12 Older (Live)<br>
13 Run Away (Live)<br>
<br>
<div class="bbCodeBlock bbCodeVfcHH HiddenContent">
<div class="attribution type">Hidden Content:</div>
<blockquote>You must reply before you can see the hidden data contained here.</blockquote>
</div></div>
<div class="messageTextEndMarker">&nbsp;</div>
</blockquote>
</article>]]></description>
                <author><![CDATA[thedhmusican]]></author>
                </item>

                
                <item>
                <title><![CDATA[【HD Live Performances】UHDTV 4K - Gaga.Chromatica.Ball.2024.2160p.MAX.WEB-DL.DDP5.1.Atmos.DV.HDR.H.265-FLUX]]></title>
                <link><![CDATA[https://sharemania.us/threads/gaga-chromatica-ball-2024-2160p-max-web-dl-ddp5-1-atmos-dv-hdr-h-265-flux.245324/]]></link>
                <description><![CDATA[<article>
<blockquote class="messageText SelectQuoteContainer ugc baseHtml">
<img src="https://i.imgur.com/NUqSros.jpeg" class="bbCodeImage LbImage" alt="[​IMG]" data-url="https://i.imgur.com/NUqSros.jpeg" style=""><br>
<br>
<div class="ToggleTriggerAnchor bbCodeSpoilerContainer">
<button type="button" class="button bbCodeSpoilerButton ToggleTrigger Tooltip JsOnly" data-target="> .SpoilerTarget"><span>Spoiler: <span class="SpoilerTitle">MediaInfo</span></span></button>
<div class="SpoilerTarget bbCodeSpoilerText">General<br>
Unique ID : 338214440684623531025283407868409372298 (0xFE71BB5D658A8980E202880D38BB5E8A)<br>
Complete name : D:\Downloads\Gaga.Chromatica.Ball.2024.2160p.MAX.WEB-DL.DDP5.1.Atmos.DV.HDR.H.265-FLUX.mkv<br>
Format : Matroska<br>
Format version : Version 4<br>
File size : 17.3 GiB<br>
Duration : 1 h 52 min<br>
Overall bit rate : 22.0 Mb/s<br>
Writing application : mkvmerge v79.0 ('Funeral Pyres') 64-bit<br>
Writing library : libebml v1.4.4 + libmatroska v1.7.1<br>
<br>
Video<br>
ID : 1<br>
Format : HEVC<br>
Format/Info : High Efficiency Video Coding<br>
Format profile : Main 10@L5.1@Main<br>
HDR format : Dolby Vision, Version 1.0, dvhe.08.06, BL+RPU, HDR10 compatible / SMPTE ST 2086, HDR10 compatible<br>
Codec ID : V_MPEGH/ISO/HEVC<br>
Duration : 1 h 52 min<br>
Bit rate : 21.4 Mb/s<br>
Width : 3 840 pixels<br>
Height : 1 920 pixels<br>
Display aspect ratio : 2.000<br>
Frame rate mode : Constant<br>
Frame rate : 23.976 (24000/1001) FPS<br>
Color space : YUV<br>
Chroma subsampling : 4:2:0 (Type 0)<br>
Bit depth : 10 bits<br>
Bits/(Pixel*Frame) : 0.121<br>
Stream size : 16.8 GiB (97%)<br>
Writing library : x265 3.5+1-f0c1022b6:[Linux][GCC 10.2.1][64 bit] 10bit<br>
Encoding settings : cpuid=1176575 / frame-threads=4 / wpp / no-pmode / no-pme / no-psnr / no-ssim / log-level=2 / input-csp=1 / input-res=3840x1920 / interlace=0 / total-frames=0 / level-idc=0 / high-tier=0 / uhd-bd=0 / ref=3 / no-allow-non-conformance / repeat-headers / annexb / aud / no-eob / no-eos / hrd / info / hash=0 / no-temporal-layers / no-open-gop / min-keyint=96 / keyint=96 / gop-lookahead=0 / bframes=4 / b-adapt=2 / b-pyramid / bframe-bias=0 / rc-lookahead=96 / lookahead-slices=8 / scenecut=40 / no-hist-scenecut / radl=0 / no-splice / no-intra-refresh / ctu=64 / min-cu-size=8 / no-rect / no-amp / max-tu-size=32 / tu-inter-depth=1 / tu-intra-depth=1 / limit-tu=0 / rdoq-level=0 / dynamic-rd=0.00 / no-ssim-rd / signhide / no-tskip / nr-intra=0 / nr-inter=0 / no-constrained-intra / strong-intra-smoothing / max-merge=3 / limit-refs=1 / no-limit-modes / me=1 / subme=2 / merange=57 / temporal-mvp / no-frame-dup / no-hme / weightp / weightb / no-analyze-src-pics / deblock=0:0 / no-sao / no-sao-non-deblock / rd=3 / selective-sao=0 / early-skip / rskip / no-fast-intra / no-tskip-fast / no-cu-lossless / b-intra / no-splitrd-skip / rdpenalty=0 / psy-rd=2.00 / psy-rdoq=0.00 / no-rd-refine / no-lossless / cbqpoffs=0 / crqpoffs=0 / rc=crf / crf=11.0 / qcomp=0.60 / qpstep=4 / stats-write=0 / stats-read=0 / vbv-maxrate=21900 / vbv-bufsize=40000 / vbv-init=0.9 / min-vbv-fullness=50.0 / max-vbv-fullness=80.0 / crf-max=0.0 / crf-min=0.0 / ipratio=1.40 / pbratio=1.30 / aq-mode=2 / aq-strength=1.00 / cutree / zone-count=0 / no-strict-cbr / qg-size=32 / no-rc-grain / qpmax=69 / qpmin=0 / no-const-vbv / sar=1 / overscan=0 / videoformat=5 / range=0 / colorprim=9 / transfer=16 / colormatrix=9 / chromaloc=1 / chromaloc-top=0 / chromaloc-bottom=0 / display-window=0 / master-display=G(8500,39850)B(6550,2300)R(35400,14600)WP(15635,16450)L(10000000,1) / cll=748,742 / min-luma=0 / max-luma=1023 / log2-max-poc-lsb=8 / vui-timing-info / vui-hrd-info / slices=1 / no-opt-qp-pps / no-opt-ref-list-length-pps / no-multi-pass-opt-rps / scenecut-bias=0.05 / hist-threshold=0.03 / no-opt-cu-delta-qp / no-aq-motion / hdr10 / hdr10-opt / no-dhdr10-opt / no-idr-recovery-sei / analysis-reuse-level=0 / analysis-save-reuse-level=0 / analysis-load-reuse-level=0 / scale-factor=0 / refine-intra=0 / refine-inter=0 / refine-mv=1 / refine-ctu-distortion=0 / no-limit-sao / ctu-info=0 / no-lowpass-dct / refine-analysis-type=0 / copy-pic=1 / max-ausize-factor=1.0 / no-dynamic-refine / no-single-sei / no-hevc-aq / no-svt / no-field / qp-adaptation-range=1.00 / scenecut-aware-qp=0conformance-window-offsets / right=0 / bottom=0 / decoder-max-rate=0 / no-vbv-live-multi-pass<br>
Language : English<br>
Default : Yes<br>
Forced : No<br>
Color range : Limited<br>
Color primaries : BT.2020<br>
Transfer characteristics : PQ<br>
Matrix coefficients : BT.2020 non-constant<br>
Mastering display color primaries : BT.2020<br>
Mastering display luminance : min: 0.0001 cd/m2, max: 1000 cd/m2<br>
Maximum Content Light Level : 748 cd/m2<br>
Maximum Frame-Average Light Level : 742 cd/m2<br>
<br>
Audio<br>
ID : 2<br>
Format : E-AC-3 JOC<br>
Format/Info : Enhanced AC-3 with Joint Object Coding<br>
Commercial name : Dolby Digital Plus with Dolby Atmos<br>
Codec ID : A_EAC3<br>
Duration : 1 h 52 min<br>
Bit rate mode : Constant<br>
Bit rate : 640 kb/s<br>
Channel(s) : 6 channels<br>
Channel layout : L R C LFE Ls Rs<br>
Sampling rate : 48.0 kHz<br>
Frame rate : 31.250 FPS (1536 SPF)<br>
Compression mode : Lossy<br>
Stream size : 514 MiB (3%)<br>
Language : English (US)<br>
Service kind : Complete Main<br>
Default : Yes<br>
Forced : No<br>
Complexity index : 16<br>
Number of dynamic objects : 15<br>
Bed channel count : 1 channel<br>
Bed channel configuration : LFE<br>
<br>
Text #1<br>
ID : 3<br>
Format : UTF-8<br>
Codec ID : S_TEXT/UTF8<br>
Codec ID/Info : UTF-8 Plain Text<br>
Duration : 1 h 46 min<br>
Bit rate : 68 b/s<br>
Frame rate : 0.197 FPS<br>
Count of elements : 1257<br>
Stream size : 53.6 KiB (0%)<br>
Language : English (US)<br>
Default : No<br>
Forced : No<br>
<br>
Text #2<br>
ID : 4<br>
Format : UTF-8<br>
Codec ID : S_TEXT/UTF8<br>
Codec ID/Info : UTF-8 Plain Text<br>
Duration : 1 h 52 min<br>
Bit rate : 69 b/s<br>
Frame rate : 0.203 FPS<br>
Count of elements : 1370<br>
Stream size : 56.8 KiB (0%)<br>
Title : SDH<br>
Language : English (US)<br>
Default : No<br>
Forced : No<br>
<br>
Menu<br>
01:50:14.065 : en:Credits</div>
</div><br>
<div class="bbCodeBlock bbCodeVfcHH HiddenContent">
<div class="attribution type">Hidden Content:</div>
<blockquote>You must either reply or click 'Like' to see the hidden information contained here.</blockquote>
</div>
<div class="messageTextEndMarker">&nbsp;</div>
</blockquote>
</article>]]></description>
                <author><![CDATA[mariellisaa]]></author>
                </item>

                
                <item>
                <title><![CDATA[【Live Audios (lossy)】MP3 - Demi Lovato — Live in London (Live) [MP3 320KBPS/44.1kHz]]]></title>
                <link><![CDATA[https://sharemania.us/threads/demi-lovato-%E2%80%94-live-in-london-live-mp3-320kbps-44-1khz.245325/]]></link>
                <description><![CDATA[<article>
<blockquote class="messageText SelectQuoteContainer ugc baseHtml">
thank you so much baby
<div class="messageTextEndMarker">&nbsp;</div>
</blockquote>
</article>]]></description>
                <author><![CDATA[thedhmusican]]></author>
                </item>

                
                <item>
                <title><![CDATA[【Requests】[REQ AUD] - Kacey Musgraves: Same Trailer Different Park (Qobuz FLAC)]]></title>
                <link><![CDATA[https://sharemania.us/threads/kacey-musgraves-same-trailer-different-park-qobuz-flac.245326/]]></link>
                <description><![CDATA[<article>
<blockquote class="messageText SelectQuoteContainer ugc baseHtml">
thanks!
<div class="messageTextEndMarker">&nbsp;</div>
</blockquote>
</article>]]></description>
                <author><![CDATA[OrangeGround35]]></author>
                </item>

                </channel></rss>